<svg width="96" height="96" viewBox="0 0 96 96" fill="none" xmlns="http://www.w3.org/2000/svg">
  <rect width="96" height="96" rx="24" fill="#0F63FF"/>
  <path d="M30 40C30 30.059 38.059 22 48 22C57.941 22 66 30.059 66 40V42H59V40C59 33.925 54.075 29 48 29C41.925 29 37 33.925 37 40V42H30V40Z" fill="white"/>
  <path d="M23 42H73L69.884 72.121C69.565 75.205 66.965 77.55 63.865 77.55H32.135C29.035 77.55 26.435 75.205 26.116 72.121L23 42Z" fill="white"/>
  <path d="M38.5 59.5C38.5 54.253 42.753 50 48 50H56C58.209 50 60 51.791 60 54C60 56.209 58.209 58 56 58H48C47.172 58 46.5 58.672 46.5 59.5C46.5 60.328 47.172 61 48 61H58" stroke="#0F63FF" stroke-width="6" stroke-linecap="round"/>
</svg>
